<svg width="2000" height="2000" viewBox="0 0 2000 2000" fill="none" xmlns="http://www.w3.org/2000/svg">
<rect width="2000" height="2000" rx="200" fill="#FA6546"/>
<path d="M298.189 1346V646H543.189L664.189 1256H682.189L803.189 646H1048.19V1346H920.189V743H902.189L782.189 1346H564.189L444.189 743H426.189V1346H298.189ZM1137.03 1346V1288H1183.03V1054H1137.03V996H1281.03C1328.03 996 1363.69 1008 1388.03 1032C1412.69 1055.67 1425.03 1091 1425.03 1138V1204C1425.03 1251 1412.69 1286.5 1388.03 1310.5C1363.69 1334.17 1328.03 1346 1281.03 1346H1137.03ZM1249.03 1286H1282.03C1308.69 1286 1328.19 1279 1340.53 1265C1352.86 1251 1359.03 1231.33 1359.03 1206V1136C1359.03 1110.33 1352.86 1090.67 1340.53 1077C1328.19 1063 1308.69 1056 1282.03 1056H1249.03V1286ZM1458.8 1346V1288H1504.8V1054H1458.8V996H1602.8C1649.8 996 1685.47 1008 1709.8 1032C1734.47 1055.67 1746.8 1091 1746.8 1138V1204C1746.8 1251 1734.47 1286.5 1709.8 1310.5C1685.47 1334.17 1649.8 1346 1602.8 1346H1458.8ZM1570.8 1286H1603.8C1630.47 1286 1649.97 1279 1662.3 1265C1674.64 1251 1680.8 1231.33 1680.8 1206V1136C1680.8 1110.33 1674.64 1090.67 1662.3 1077C1649.97 1063 1630.47 1056 1603.8 1056H1570.8V1286Z" fill="#E4DDDB"/>
</svg>
